<svg width="200" height="200" viewBox="0 0 200 200" fill="none" xmlns="http://www.w3.org/2000/svg">
  <!-- Background Circle -->
  <circle cx="100" cy="100" r="95" fill="#1e40af" stroke="#1e3a8a" stroke-width="3"/>
  
  <!-- Kingdom Hall Building -->
  <!-- Main building body -->
  <rect x="60" y="90" width="80" height="60" fill="#e5e7eb" stroke="#9ca3af" stroke-width="2"/>
  
  <!-- Roof -->
  <path d="M55 90 L100 65 L145 90 Z" fill="#6b7280" stroke="#4b5563" stroke-width="2"/>
  
  <!-- Windows (symmetrical) -->
  <rect x="70" y="100" width="15" height="20" fill="#60a5fa" stroke="#3b82f6" stroke-width="1.5"/>
  <rect x="92.5" y="100" width="15" height="20" fill="#60a5fa" stroke="#3b82f6" stroke-width="1.5"/>
  <rect x="115" y="100" width="15" height="20" fill="#60a5fa" stroke="#3b82f6" stroke-width="1.5"/>
  
  <!-- Door -->
  <rect x="85" y="130" width="30" height="20" fill="#8b5cf6" stroke="#7c3aed" stroke-width="1.5"/>
  <circle cx="108" cy="140" r="1.5" fill="#fbbf24"/>
  
  <!-- Construction Scaffolding (left side) -->
  <g stroke="#f59e0b" stroke-width="2" fill="none">
    <line x1="45" y1="90" x2="45" y2="150"/>
    <line x1="52" y1="90" x2="52" y2="150"/>
    <line x1="45" y1="100" x2="52" y2="100"/>
    <line x1="45" y1="115" x2="52" y2="115"/>
    <line x1="45" y1="130" x2="52" y2="130"/>
    <line x1="45" y1="145" x2="52" y2="145"/>
  </g>
  
  <!-- Construction Scaffolding (right side) -->
  <g stroke="#f59e0b" stroke-width="2" fill="none">
    <line x1="148" y1="90" x2="148" y2="150"/>
    <line x1="155" y1="90" x2="155" y2="150"/>
    <line x1="148" y1="100" x2="155" y2="100"/>
    <line x1="148" y1="115" x2="155" y2="115"/>
    <line x1="148" y1="130" x2="155" y2="130"/>
    <line x1="148" y1="145" x2="155" y2="145"/>
  </g>
  
  <!-- Construction Crane (simple) -->
  <g stroke="#fbbf24" stroke-width="2.5" fill="none">
    <line x1="160" y1="150" x2="160" y2="70"/>
    <line x1="160" y1="70" x2="185" y2="70"/>
    <line x1="175" y1="70" x2="175" y2="85" stroke-width="1.5"/>
  </g>
  
  <!-- Hard Hat on ground -->
  <ellipse cx="35" cy="152" rx="8" ry="3" fill="#fbbf24"/>
  <path d="M27 152 L35 145 L43 152 Z" fill="#fbbf24" stroke="#f59e0b" stroke-width="1"/>
  
  <!-- LDC Text -->
  <text x="100" y="185" font-family="Arial, sans-serif" font-size="20" font-weight="bold" fill="white" text-anchor="middle">LDC TOOLS</text>
</svg>
