<svg width="200" height="200" viewBox="0 0 200 200" fill="none" xmlns="http://www.w3.org/2000/svg">
  <!-- Background Circle -->
  <circle cx="100" cy="100" r="95" fill="#1e40af" stroke="#1e3a8a" stroke-width="3"/>
  
  <!-- Modern Kingdom Hall Building -->
  <!-- Main building body (beige/tan color like real KH) -->
  <rect x="50" y="95" width="100" height="55" fill="#e8d4b8" stroke="#c4a57b" stroke-width="2"/>
  
  <!-- Flat roof with overhang (characteristic modern KH design) -->
  <rect x="45" y="90" width="110" height="8" fill="#9ca3af" stroke="#6b7280" stroke-width="1.5"/>
  <!-- Roof overhang shadow -->
  <rect x="45" y="97" width="110" height="2" fill="#6b7280" opacity="0.3"/>
  
  <!-- Entrance area (recessed) -->
  <rect x="65" y="105" width="25" height="45" fill="#d4bfa0" stroke="#c4a57b" stroke-width="1.5"/>
  
  <!-- Glass entrance doors -->
  <rect x="68" y="110" width="8" height="35" fill="#60a5fa" stroke="#3b82f6" stroke-width="1"/>
  <rect x="79" y="110" width="8" height="35" fill="#60a5fa" stroke="#3b82f6" stroke-width="1"/>
  
  <!-- Windows (modern rectangular) -->
  <rect x="100" y="105" width="20" height="15" fill="#60a5fa" stroke="#3b82f6" stroke-width="1.5"/>
  <rect x="125" y="105" width="20" height="15" fill="#60a5fa" stroke="#3b82f6" stroke-width="1.5"/>
  
  <!-- JW.ORG sign -->
  <rect x="130" y="125" width="12" height="8" fill="#4f46e5" stroke="#4338ca" stroke-width="1"/>
  <text x="136" y="131" font-family="Arial, sans-serif" font-size="5" font-weight="bold" fill="white" text-anchor="middle">JW</text>
  
  <!-- Red accent stripe at bottom (like real KH) -->
  <rect x="50" y="145" width="100" height="5" fill="#dc2626"/>
  
  <!-- Construction Scaffolding (right side) -->
  <g stroke="#f59e0b" stroke-width="2" fill="none">
    <line x1="155" y1="95" x2="155" y2="150"/>
    <line x1="162" y1="95" x2="162" y2="150"/>
    <line x1="155" y1="105" x2="162" y2="105"/>
    <line x1="155" y1="120" x2="162" y2="120"/>
    <line x1="155" y1="135" x2="162" y2="135"/>
  </g>
  
  <!-- Construction Equipment -->
  <!-- Hard hat on ground -->
  <g transform="translate(35, 145)">
    <ellipse cx="0" cy="5" rx="7" ry="2.5" fill="#fbbf24"/>
    <path d="M-7 5 L0 -2 L7 5 Z" fill="#fbbf24" stroke="#f59e0b" stroke-width="1"/>
  </g>
  
  <!-- Tool box -->
  <rect x="165" y="145" width="15" height="8" fill="#dc2626" stroke="#991b1b" stroke-width="1"/>
  <rect x="170" y="143" width="5" height="2" fill="#6b7280"/>
  
  <!-- Construction cone -->
  <g transform="translate(55, 150)">
    <path d="M0 0 L-3 8 L3 8 Z" fill="#f97316" stroke="#ea580c" stroke-width="1"/>
    <rect x="-3.5" y="8" width="7" height="2" fill="#1f2937"/>
  </g>
  
  <!-- LDC Text -->
  <text x="100" y="180" font-family="Arial, sans-serif" font-size="20" font-weight="bold" fill="white" text-anchor="middle">LDC TOOLS</text>
</svg>
